<svg id="visual" viewBox="0 0 960 540" width="960" height="540" xmlns="http://www.w3.org/2000/svg" xmlns:xlink="http://www.w3.org/1999/xlink" version="1.1"><rect x="0" y="0" width="960" height="540" fill="#FFFFFF"></rect><defs><linearGradient id="grad1_0" x1="43.8%" y1="100%" x2="100%" y2="0%"><stop offset="14.444444444444446%" stop-color="#cccccc" stop-opacity="1"></stop><stop offset="85.55555555555554%" stop-color="#cccccc" stop-opacity="1"></stop></linearGradient></defs><defs><linearGradient id="grad1_1" x1="43.8%" y1="100%" x2="100%" y2="0%"><stop offset="14.444444444444446%" stop-color="#cccccc" stop-opacity="1"></stop><stop offset="85.55555555555554%" stop-color="#dddddd" stop-opacity="1"></stop></linearGradient></defs><defs><linearGradient id="grad1_2" x1="43.8%" y1="100%" x2="100%" y2="0%"><stop offset="14.444444444444446%" stop-color="#eeeeee" stop-opacity="1"></stop><stop offset="85.55555555555554%" stop-color="#dddddd" stop-opacity="1"></stop></linearGradient></defs><defs><linearGradient id="grad1_3" x1="43.8%" y1="100%" x2="100%" y2="0%"><stop offset="14.444444444444446%" stop-color="#eeeeee" stop-opacity="1"></stop><stop offset="85.55555555555554%" stop-color="#ffffff" stop-opacity="1"></stop></linearGradient></defs><defs><linearGradient id="grad2_0" x1="0%" y1="100%" x2="56.3%" y2="0%"><stop offset="14.444444444444446%" stop-color="#cccccc" stop-opacity="1"></stop><stop offset="85.55555555555554%" stop-color="#cccccc" stop-opacity="1"></stop></linearGradient></defs><defs><linearGradient id="grad2_1" x1="0%" y1="100%" x2="56.3%" y2="0%"><stop offset="14.444444444444446%" stop-color="#dddddd" stop-opacity="1"></stop><stop offset="85.55555555555554%" stop-color="#cccccc" stop-opacity="1"></stop></linearGradient></defs><defs><linearGradient id="grad2_2" x1="0%" y1="100%" x2="56.3%" y2="0%"><stop offset="14.444444444444446%" stop-color="#dddddd" stop-opacity="1"></stop><stop offset="85.55555555555554%" stop-color="#eeeeee" stop-opacity="1"></stop></linearGradient></defs><defs><linearGradient id="grad2_3" x1="0%" y1="100%" x2="56.3%" y2="0%"><stop offset="14.444444444444446%" stop-color="#ffffff" stop-opacity="1"></stop><stop offset="85.55555555555554%" stop-color="#eeeeee" stop-opacity="1"></stop></linearGradient></defs><g transform="translate(960, 540)"><path d="M-243 0C-235 -31.6 -227.1 -63.2 -211.6 -87.6C-196 -112.1 -173 -129.4 -153.4 -153.4C-133.9 -177.5 -118 -208.4 -93 -224.5C-68 -240.6 -34 -241.8 0 -243L0 0Z" fill="#f6f6f6"></path><path d="M-182.2 0C-176.3 -23.7 -170.3 -47.4 -158.7 -65.7C-147 -84.1 -129.7 -97 -115.1 -115.1C-100.4 -133.2 -88.5 -156.3 -69.7 -168.4C-51 -180.4 -25.5 -181.3 0 -182.2L0 0Z" fill="#e5e5e5"></path><path d="M-121.5 0C-117.5 -15.8 -113.5 -31.6 -105.8 -43.8C-98 -56 -86.5 -64.7 -76.7 -76.7C-67 -88.8 -59 -104.2 -46.5 -112.3C-34 -120.3 -17 -120.9 0 -121.5L0 0Z" fill="#d4d4d4"></path><path d="M-60.7 0C-58.8 -7.9 -56.8 -15.8 -52.9 -21.9C-49 -28 -43.2 -32.3 -38.4 -38.4C-33.5 -44.4 -29.5 -52.1 -23.2 -56.1C-17 -60.1 -8.5 -60.4 0 -60.7L0 0Z" fill="#cccccc"></path></g><g transform="translate(0, 0)"><path d="M243 0C239.6 31.9 236.2 63.7 224.5 93C212.8 122.3 192.9 149 169 169C145.1 189 117.2 202.2 88.4 213.4C59.6 224.6 29.8 233.8 0 243L0 0Z" fill="#f6f6f6"></path><path d="M182.3 0C179.7 23.9 177.1 47.8 168.4 69.7C159.6 91.7 144.7 111.8 126.7 126.7C108.8 141.7 87.9 151.7 66.3 160.1C44.7 168.5 22.3 175.4 0 182.3L0 0Z" fill="#e5e5e5"></path><path d="M121.5 0C119.8 15.9 118.1 31.9 112.3 46.5C106.4 61.1 96.4 74.5 84.5 84.5C72.5 94.5 58.6 101.1 44.2 106.7C29.8 112.3 14.9 116.9 0 121.5L0 0Z" fill="#d4d4d4"></path><path d="M60.8 0C59.9 8 59 15.9 56.1 23.2C53.2 30.6 48.2 37.3 42.2 42.2C36.3 47.2 29.3 50.6 22.1 53.4C14.9 56.2 7.4 58.5 0 60.8L0 0Z" fill="#cccccc"></path></g></svg>